<?xml version="1.0" encoding="UTF-8"?>
<svg width="100px" height="100px" viewBox="0 0 100 100" version="1.1" xmlns="http://www.w3.org/2000/svg" xmlns:xlink="http://www.w3.org/1999/xlink">
    <!-- Generator: Sketch 47 (45396) - http://www.bohemiancoding.com/sketch -->
    <title>Credit cards</title>
    <desc>Created with Sketch.</desc>
    <defs></defs>
    <g id="Landing-English" stroke="none" stroke-width="1" fill="none" fill-rule="evenodd">
        <g id="Website-Main" transform="translate(-553.000000, -4654.000000)" fill-rule="nonzero">
            <g id="Cb-de-temps" transform="translate(0.000000, 3744.000000)">
                <g id="2" transform="translate(443.000000, 910.000000)">
                    <g id="Group-9" transform="translate(40.000000, 0.000000)">
                        <g id="Credit-cards" transform="translate(70.000000, 0.000000)">
                            <circle id="Oval" fill="#B6CCF9" cx="50" cy="50" r="50"></circle>
                            <path d="M66.6333405,21.3927598 C68.8289399,21.1231741 70.8263915,22.6765703 71.0951053,24.8650681 L74.5098408,52.6758567 C74.778406,54.8631454 73.2157175,56.8548992 71.0206369,57.1244212 L26.3666595,62.6072402 C24.1710601,62.8768259 22.1736085,61.3234297 21.9048947,59.1349319 L18.4901592,31.3241433 C18.221594,29.1368546 19.7842825,27.1451008 21.9793631,26.8755788 L66.6333405,21.3927598 Z M18.9788335,35.3040761 L19.5881803,40.2668068 L72.1931263,33.8077316 L71.5837796,28.8450009 L18.9788335,35.3040761 Z" id="Shape" fill="#4577D8"></path>
                            <path d="M82,45.9901786 C82,43.7852456 80.2067484,42 77.9946605,42 L33.0053395,42 C30.7937742,42 29,43.7864638 29,45.9901786 L29,74.0098214 C29,76.2147544 30.7932516,78 33.0053395,78 L77.9946605,78 C80.2062258,78 82,76.2135362 82,74.0098214 L82,45.9901786 Z" id="Shape" fill="#79A0EE"></path>
                            <path d="M35,68 C35,66.8954305 35.8900584,66 37.0001062,66 L49.9998938,66 C51.104522,66 52,66.8877296 52,68 C52,69.1045695 51.1099416,70 49.9998938,70 L37.0001062,70 C35.895478,70 35,69.1122704 35,68 Z M55,68 C55,66.8954305 55.8900584,66 57.0001062,66 L69.9998938,66 C71.104522,66 72,66.8877296 72,68 C72,69.1045695 71.1099416,70 69.9998938,70 L57.0001062,70 C55.895478,70 55,69.1122704 55,68 Z M35,53.9981014 C35,52.8945804 35.8874333,52 36.999615,52 L43.000385,52 C44.1047419,52 45,52.8867064 45,53.9981014 L45,58.0018986 C45,59.1054196 44.1125667,60 43.000385,60 L36.999615,60 C35.8952581,60 35,59.1132936 35,58.0018986 L35,53.9981014 Z" id="Shape" fill="#4577D8"></path>
                        </g>
                    </g>
                </g>
            </g>
        </g>
    </g>
</svg>